<svg xmlns="http://www.w3.org/2000/svg" version="1.1" xmlns:xlink="http://www.w3.org/1999/xlink" xmlns:svgjs="http://svgjs.com/svgjs" width="1000" height="2000" preserveAspectRatio="none" viewBox="0 0 1000 2000"><g mask="url(&quot;#SvgjsMask1200&quot;)" fill="none"><rect width="1000" height="2000" x="0" y="0" fill="rgba(255, 255, 255, 1)"></rect><path d="M 0,342 C 66.8,300.2 200.4,111.2 334,133 C 467.6,154.8 534.8,431.2 668,451 C 801.2,470.8 933.6,275.8 1000,232L1000 2000L0 2000z" fill="rgba(13, 71, 161, 1)"></path><path d="M 0,601 C 50,634.6 150,786.8 250,769 C 350,751.2 400,466.8 500,512 C 600,557.2 650,963.6 750,995 C 850,1026.4 950,734.2 1000,669L1000 2000L0 2000z" fill="rgba(84, 114, 211, 1)"></path><path d="M 0,1246 C 50,1264.6 150,1369.2 250,1339 C 350,1308.8 400,1107.4 500,1095 C 600,1082.6 650,1295.2 750,1277 C 850,1258.8 950,1058.6 1000,1004L1000 2000L0 2000z" fill="rgba(255, 255, 255, 1)"></path><path d="M 0,1581 C 100,1653.6 300,1912.8 500,1944 C 700,1975.2 900,1778.4 1000,1737L1000 2000L0 2000z" fill="rgba(0, 33, 113, 1)"></path></g><defs><mask id="SvgjsMask1200"><rect width="1000" height="2000" fill="#ffffff"></rect></mask></defs></svg>